<svg width="91" height="307" viewBox="0 0 91 307" fill="none" xmlns="http://www.w3.org/2000/svg">
<g id="one">
<path id="1" d="M43.8 175C40.3333 175 37 174.867 33.8 174.6C30.7333 174.333 28.2 173.533 26.2 172.2C24.2 170.733 23.2 168.133 23.2 164.4C23.2 163.733 23.2 163.067 23.2 162.4C23.3333 161.6 23.4667 160.8 23.6 160C24.4 156.133 26.0667 150.8 28.6 144C31.1333 137.067 34.2 129.6 37.8 121.6C41.4 113.6 45.0667 106 48.8 98.8C45.0667 101.6 41.3333 104.6 37.6 107.8C33.8667 111 29.6667 114.6 25 118.6C24.6 119 24.1333 119.2 23.6 119.2C22.9333 119.2 22.3333 118.8 21.8 118C21.4 117.2 21.2 116.333 21.2 115.4C21.2 113.8 21.7333 112.533 22.8 111.6C32.8 103.067 40.8 96 46.8 90.4C52.9333 84.8 58 79.8 62 75.4C65.2 71.9333 68.5333 69.4 72 67.8C75.4667 66.2 79.6667 65.4 84.6 65.4C87.9333 65.4 91.8 65.8 96.2 66.6C97.9333 67 98.8 67.5333 98.8 68.2C98.8 68.8667 98 69.8 96.4 71C94.2667 72.4667 91.6 75.4 88.4 79.8C85.3333 84.0667 82 89.3333 78.4 95.6C74.8 101.733 71.1333 108.467 67.4 115.8C63.8 123 60.4 130.267 57.2 137.6C54 144.933 51.2 151.867 48.8 158.4C46.5333 164.8 44.8667 170.333 43.8 175Z" fill="#00AB67"/>
<g id="1_2" filter="url(#filter0_b_44_9)">
<path d="M36.54 179C32.9 179 29.4 178.86 26.04 178.58C22.82 178.3 20.16 177.46 18.06 176.06C15.96 174.52 14.91 171.79 14.91 167.87C14.91 167.17 14.91 166.47 14.91 165.77C15.05 164.93 15.19 164.09 15.33 163.25C16.17 159.19 17.92 153.59 20.58 146.45C23.24 139.17 26.46 131.33 30.24 122.93C34.02 114.53 37.87 106.55 41.79 98.99C37.87 101.93 33.95 105.08 30.03 108.44C26.11 111.8 21.7 115.58 16.8 119.78C16.38 120.2 15.89 120.41 15.33 120.41C14.63 120.41 14 119.99 13.44 119.15C13.02 118.31 12.81 117.4 12.81 116.42C12.81 114.74 13.37 113.41 14.49 112.43C24.99 103.47 33.39 96.05 39.69 90.17C46.13 84.29 51.45 79.04 55.65 74.42C59.01 70.78 62.51 68.12 66.15 66.44C69.79 64.76 74.2 63.92 79.38 63.92C82.88 63.92 86.94 64.34 91.56 65.18C93.38 65.6 94.29 66.16 94.29 66.86C94.29 67.56 93.45 68.54 91.77 69.8C89.53 71.34 86.73 74.42 83.37 79.04C80.15 83.52 76.65 89.05 72.87 95.63C69.09 102.07 65.24 109.14 61.32 116.84C57.54 124.4 53.97 132.03 50.61 139.73C47.25 147.43 44.31 154.71 41.79 161.57C39.41 168.29 37.66 174.1 36.54 179Z" fill="white" fill-opacity="0.2"/>
</g>
</g>
<defs>
<filter id="filter0_b_44_9" x="8.81006" y="59.9199" width="89.48" height="123.08" filterUnits="userSpaceOnUse" color-interpolation-filters="sRGB">
<feFlood flood-opacity="0" result="BackgroundImageFix"/>
<feGaussianBlur in="BackgroundImageFix" stdDeviation="2"/>
<feComposite in2="SourceAlpha" operator="in" result="effect1_backgroundBlur_44_9"/>
<feBlend mode="normal" in="SourceGraphic" in2="effect1_backgroundBlur_44_9" result="shape"/>
</filter>
</defs>
</svg>
