<svg width="96" height="252" viewBox="0 0 96 252" fill="none" xmlns="http://www.w3.org/2000/svg">
<g id="three">
<path id="3" d="M43 175.8C38.2 175.8 33.6 175.2 29.2 174C24.8 172.667 21.2 170.6 18.4 167.8C15.7333 165 14.4 161.267 14.4 156.6C14.4 151.267 15.5333 147 17.8 143.8C20.0667 140.467 22.8667 138.2 26.2 137C26.6 136.733 27 136.6 27.4 136.6C27.9333 136.6 28.4 136.6 28.8 136.6C30.2667 136.6 31.4 136.933 32.2 137.6C33.1333 138.267 33.2667 139 32.6 139.8C31.5333 141.267 30.3333 143.6 29 146.8C27.6667 149.867 27 152.933 27 156C27 158.4 27.5333 160.467 28.6 162.2C29.8 163.933 31.8667 165 34.8 165.4C37.7333 165.667 40.8 164.867 44 163C47.2 161.133 50.2667 158.533 53.2 155.2C56.2667 151.867 59 148.267 61.4 144.4C63.9333 140.533 65.9333 136.8 67.4 133.2C68.8667 129.6 69.6 126.533 69.6 124C69.6 121.067 68.8667 119.067 67.4 118C66.0667 116.933 64.4667 116.4 62.6 116.4C60.4667 116.4 58.2 116.8 55.8 117.6C53.4 118.4 51.6667 119 50.6 119.4C50.0667 119.533 49.5333 119.667 49 119.8C48.6 119.8 48.2 119.8 47.8 119.8C46.3333 119.8 45.2 119.4 44.4 118.6C43.6 117.8 43.2 116.933 43.2 116C43.2 114.8 43.7333 113.6 44.8 112.4C45.8667 111.2 47.4667 110.533 49.6 110.4C52.8 110.133 56.2 108.867 59.8 106.6C63.4 104.2 66.7333 101.533 69.8 98.6C72.8667 95.6667 75.2667 93.2 77 91.2C78.2 90 79.4667 88.2 80.8 85.8C82.2667 83.4 83 81.1333 83 79C83 77.5333 82.5333 76.3333 81.6 75.4C80.6667 74.4667 78.9333 74 76.4 74C73.3333 74 70.2 74.8667 67 76.6C63.9333 78.3333 61.0667 80.4667 58.4 83C55.7333 85.4 53.4 87.8 51.4 90.2C49.5333 92.4667 48.2667 94.1333 47.6 95.2C46.1333 97.4667 44.4 98.6 42.4 98.6C41.0667 98.6 39.8667 98 38.8 96.8C37.8667 95.4667 37.4 93.8667 37.4 92C37.4 90.5333 37.7333 89 38.4 87.4C39.0667 85.8 40.1333 84.2 41.6 82.6C47.8667 75.9333 54.0667 71.2 60.2 68.4C66.4667 65.4667 72.7333 64 79 64C87.2667 64 93.5333 65.5333 97.8 68.6C102.067 71.6667 104.2 75.4667 104.2 80C104.2 84.8 102.067 89.7333 97.8 94.8C94.6 98.8 90.7333 102.467 86.2 105.8C81.8 109.133 77.8667 111.8 74.4 113.8C74.9333 113.8 75.4 113.8 75.8 113.8C76.3333 113.667 76.8667 113.6 77.4 113.6C82.8667 113.6 86.8 115 89.2 117.8C91.7333 120.6 93 124.133 93 128.4C93 132.133 92.2 136.2 90.6 140.6C89 145 86.7333 149.333 83.8 153.6C81 157.733 77.7333 161.467 74 164.8C70.4 168.133 66.6 170.667 62.6 172.4C57 174.667 50.4667 175.8 43 175.8Z" fill="#00AB67"/>
<g id="3_2" filter="url(#filter0_b_44_11)">
<path d="M32.55 180.89C27.51 180.89 22.68 180.26 18.06 179C13.44 177.6 9.66 175.43 6.72 172.49C3.92 169.55 2.52 165.63 2.52 160.73C2.52 155.13 3.71 150.65 6.09 147.29C8.47 143.79 11.41 141.41 14.91 140.15C15.33 139.87 15.75 139.73 16.17 139.73C16.73 139.73 17.22 139.73 17.64 139.73C19.18 139.73 20.37 140.08 21.21 140.78C22.19 141.48 22.33 142.25 21.63 143.09C20.51 144.63 19.25 147.08 17.85 150.44C16.45 153.66 15.75 156.88 15.75 160.1C15.75 162.62 16.31 164.79 17.43 166.61C18.69 168.43 20.86 169.55 23.94 169.97C27.02 170.25 30.24 169.41 33.6 167.45C36.96 165.49 40.18 162.76 43.26 159.26C46.48 155.76 49.35 151.98 51.87 147.92C54.53 143.86 56.63 139.94 58.17 136.16C59.71 132.38 60.48 129.16 60.48 126.5C60.48 123.42 59.71 121.32 58.17 120.2C56.77 119.08 55.09 118.52 53.13 118.52C50.89 118.52 48.51 118.94 45.99 119.78C43.47 120.62 41.65 121.25 40.53 121.67C39.97 121.81 39.41 121.95 38.85 122.09C38.43 122.09 38.01 122.09 37.59 122.09C36.05 122.09 34.86 121.67 34.02 120.83C33.18 119.99 32.76 119.08 32.76 118.1C32.76 116.84 33.32 115.58 34.44 114.32C35.56 113.06 37.24 112.36 39.48 112.22C42.84 111.94 46.41 110.61 50.19 108.23C53.97 105.71 57.47 102.91 60.69 99.83C63.91 96.75 66.43 94.16 68.25 92.06C69.51 90.8 70.84 88.91 72.24 86.39C73.78 83.87 74.55 81.49 74.55 79.25C74.55 77.71 74.06 76.45 73.08 75.47C72.1 74.49 70.28 74 67.62 74C64.4 74 61.11 74.91 57.75 76.73C54.53 78.55 51.52 80.79 48.72 83.45C45.92 85.97 43.47 88.49 41.37 91.01C39.41 93.39 38.08 95.14 37.38 96.26C35.84 98.64 34.02 99.83 31.92 99.83C30.52 99.83 29.26 99.2 28.14 97.94C27.16 96.54 26.67 94.86 26.67 92.9C26.67 91.36 27.02 89.75 27.72 88.07C28.42 86.39 29.54 84.71 31.08 83.03C37.66 76.03 44.17 71.06 50.61 68.12C57.19 65.04 63.77 63.5 70.35 63.5C79.03 63.5 85.61 65.11 90.09 68.33C94.57 71.55 96.81 75.54 96.81 80.3C96.81 85.34 94.57 90.52 90.09 95.84C86.73 100.04 82.67 103.89 77.91 107.39C73.29 110.89 69.16 113.69 65.52 115.79C66.08 115.79 66.57 115.79 66.99 115.79C67.55 115.65 68.11 115.58 68.67 115.58C74.41 115.58 78.54 117.05 81.06 119.99C83.72 122.93 85.05 126.64 85.05 131.12C85.05 135.04 84.21 139.31 82.53 143.93C80.85 148.55 78.47 153.1 75.39 157.58C72.45 161.92 69.02 165.84 65.1 169.34C61.32 172.84 57.33 175.5 53.13 177.32C47.25 179.7 40.39 180.89 32.55 180.89Z" fill="white" fill-opacity="0.2"/>
</g>
</g>
<defs>
<filter id="filter0_b_44_11" x="-1.47998" y="59.5" width="102.29" height="125.39" filterUnits="userSpaceOnUse" color-interpolation-filters="sRGB">
<feFlood flood-opacity="0" result="BackgroundImageFix"/>
<feGaussianBlur in="BackgroundImageFix" stdDeviation="2"/>
<feComposite in2="SourceAlpha" operator="in" result="effect1_backgroundBlur_44_11"/>
<feBlend mode="normal" in="SourceGraphic" in2="effect1_backgroundBlur_44_11" result="shape"/>
</filter>
</defs>
</svg>
