<svg width="95" height="305" viewBox="0 0 95 305" fill="none" xmlns="http://www.w3.org/2000/svg">
<g id="two">
<path id="2" d="M74.4 174.6C73.8667 173.933 71.6 173.467 67.6 173.2C63.7333 173.067 58.8667 173 53 173H13.6C11.8667 173 11 171.8 11 169.4C11 167.133 11.7333 164.533 13.2 161.6C14.6667 158.533 16.4667 156.2 18.6 154.6C24.0667 150.6 30.0667 145.8 36.6 140.2C43.1333 134.467 49.3333 128.333 55.2 121.8C61.2 115.133 66.0667 108.4 69.8 101.6C73.6667 94.8 75.6 88.3333 75.6 82.2C75.6 79.6667 75.0667 77.8667 74 76.8C72.9333 75.7333 71.6 75.2 70 75.2C67.3333 75.2 64.3333 76.3333 61 78.6C57.6667 80.7333 55.1333 83.1333 53.4 85.8C51.4 88.8667 49.8667 91.4 48.8 93.4C47.8667 95.2667 46.8667 96.6667 45.8 97.6C44.8667 98.5333 43.4 99 41.4 99C40.0667 99 38.9333 98.4667 38 97.4C37.0667 96.3333 36.6 94.9333 36.6 93.2C36.6 91.6 37.0667 89.8 38 87.8C38.9333 85.8 40.4667 83.7333 42.6 81.6C47.6667 76.4 53.2 72.0667 59.2 68.6C65.3333 65 72.0667 63.2 79.4 63.2C87.2667 63.2 92.8 64.9333 96 68.4C99.2 71.8667 100.8 76.1333 100.8 81.2C100.8 87.4667 98.9333 93.8 95.2 100.2C91.6 106.467 86.8667 112.533 81 118.4C75.2667 124.267 69.0667 129.8 62.4 135C55.8667 140.2 49.6 144.8 43.6 148.8C37.6 152.8 32.6667 156 28.8 158.4C31.6 157.333 34.8 156.4 38.4 155.6C42.1333 154.8 45.8 154.2 49.4 153.8C53.1333 153.4 56.2667 153.2 58.8 153.2C64.4 153.2 69 154.2 72.6 156.2C76.3333 158.2 78.2 161.533 78.2 166.2C78.2 168.333 77.8 170.733 77 173.4C76.8667 174.2 76.4667 174.667 75.8 174.8C75.1333 175.067 74.6667 175 74.4 174.6Z" fill="#00AB67"/>
<g id="2_2" filter="url(#filter0_b_44_10)">
<path d="M64.47 180.68C63.91 179.98 61.53 179.49 57.33 179.21C53.27 179.07 48.16 179 42 179H0.63C-1.19 179 -2.1 177.74 -2.1 175.22C-2.1 172.84 -1.33 170.11 0.21 167.03C1.75 163.81 3.64 161.36 5.88 159.68C11.62 155.48 17.92 150.44 24.78 144.56C31.64 138.54 38.15 132.1 44.31 125.24C50.61 118.24 55.72 111.17 59.64 104.03C63.7 96.89 65.73 90.1 65.73 83.66C65.73 81 65.17 79.11 64.05 77.99C62.93 76.87 61.53 76.31 59.85 76.31C57.05 76.31 53.9 77.5 50.4 79.88C46.9 82.12 44.24 84.64 42.42 87.44C40.32 90.66 38.71 93.32 37.59 95.42C36.61 97.38 35.56 98.85 34.44 99.83C33.46 100.81 31.92 101.3 29.82 101.3C28.42 101.3 27.23 100.74 26.25 99.62C25.27 98.5 24.78 97.03 24.78 95.21C24.78 93.53 25.27 91.64 26.25 89.54C27.23 87.44 28.84 85.27 31.08 83.03C36.4 77.57 42.21 73.02 48.51 69.38C54.95 65.6 62.02 63.71 69.72 63.71C77.98 63.71 83.79 65.53 87.15 69.17C90.51 72.81 92.19 77.29 92.19 82.61C92.19 89.19 90.23 95.84 86.31 102.56C82.53 109.14 77.56 115.51 71.4 121.67C65.38 127.83 58.87 133.64 51.87 139.1C45.01 144.56 38.43 149.39 32.13 153.59C25.83 157.79 20.65 161.15 16.59 163.67C19.53 162.55 22.89 161.57 26.67 160.73C30.59 159.89 34.44 159.26 38.22 158.84C42.14 158.42 45.43 158.21 48.09 158.21C53.97 158.21 58.8 159.26 62.58 161.36C66.5 163.46 68.46 166.96 68.46 171.86C68.46 174.1 68.04 176.62 67.2 179.42C67.06 180.26 66.64 180.75 65.94 180.89C65.24 181.17 64.75 181.1 64.47 180.68Z" fill="white" fill-opacity="0.2"/>
</g>
</g>
<defs>
<filter id="filter0_b_44_10" x="-6.1001" y="59.71" width="102.29" height="125.6" filterUnits="userSpaceOnUse" color-interpolation-filters="sRGB">
<feFlood flood-opacity="0" result="BackgroundImageFix"/>
<feGaussianBlur in="BackgroundImageFix" stdDeviation="2"/>
<feComposite in2="SourceAlpha" operator="in" result="effect1_backgroundBlur_44_10"/>
<feBlend mode="normal" in="SourceGraphic" in2="effect1_backgroundBlur_44_10" result="shape"/>
</filter>
</defs>
</svg>
